<svg width="25" height="16" viewBox="0 0 25 16" fill="none" xmlns="http://www.w3.org/2000/svg">
<path fill-rule="evenodd" clip-rule="evenodd" d="M10.0789 7.28007C10.5769 7.02955 10.9535 6.75053 11.2115 6.449C11.6705 5.90596 11.897 5.1859 11.897 4.29332C11.897 3.42475 11.6705 2.68219 11.2175 2.05964C10.4614 1.04556 9.18182 0.526514 7.37267 0.499512H0.205078V15.1302H6.88813C7.64119 15.1302 8.33875 15.0657 8.9838 14.9337C9.62885 14.8002 10.1869 14.5557 10.6594 14.1986C11.0795 13.8881 11.4305 13.5026 11.7095 13.048C12.1506 12.361 12.3711 11.5824 12.3711 10.7153C12.3711 9.87528 12.1776 9.15972 11.7935 8.57167C11.405 7.98363 10.835 7.55309 10.0789 7.28007ZM3.16182 3.04072H6.39009C7.09964 3.04072 7.68469 3.11723 8.14373 3.26874C8.67477 3.48926 8.9403 3.93779 8.9403 4.62185C8.9403 5.2354 8.73778 5.66444 8.33725 5.90596C7.93371 6.14748 7.41017 6.26899 6.76812 6.26899H3.16182V3.04072ZM8.26674 12.334C7.90971 12.5065 7.40717 12.592 6.76362 12.592H3.16182V8.69018H6.81312C7.44917 8.69468 7.94421 8.77869 8.29824 8.9362C8.92829 9.22123 9.24182 9.74327 9.24182 10.5068C9.24182 11.4069 8.91779 12.013 8.26674 12.334ZM21.899 1.18164H15.543V3.00279H21.899V1.18164ZM23.2295 6.13258C23.6826 6.77614 23.9736 7.5217 24.1056 8.36927C24.1836 8.86431 24.2136 9.58286 24.2016 10.5174H16.2105C16.2585 11.602 16.6365 12.3641 17.3595 12.7991C17.7976 13.0706 18.3226 13.2072 18.9422 13.2072C19.5932 13.2072 20.1243 13.0421 20.5323 12.7121C20.7573 12.5321 20.9538 12.2846 21.1234 11.9681H24.0516C23.9736 12.6086 23.6181 13.2612 22.9895 13.9242C22.0069 14.9743 20.6313 15.5008 18.8627 15.5008C17.4015 15.5008 16.1144 15.0583 14.9999 14.1702C13.8808 13.2837 13.3242 11.839 13.3242 9.83938C13.3242 7.96423 13.8283 6.52561 14.8348 5.52503C15.8444 4.52745 17.1495 4.02491 18.7562 4.02491C19.7132 4.02341 20.5728 4.19293 21.3364 4.53195C22.1029 4.86948 22.733 5.40352 23.2295 6.13258ZM17.0475 6.97565C16.6425 7.38819 16.3875 7.94623 16.2825 8.64979H21.2254C21.1729 7.89823 20.9163 7.32968 20.4618 6.93815C20.0013 6.54962 19.4357 6.3561 18.7592 6.3561C18.0256 6.3576 17.4526 6.56462 17.0475 6.97565Z" fill="white"/>
</svg>
