<svg width="113" height="18" viewBox="0 0 113 18" fill="none" xmlns="http://www.w3.org/2000/svg">
<path d="M7.40318 18C5.99832 18 4.77916 17.765 3.7457 17.2951C2.71225 16.809 1.91293 16.0718 1.34776 15.0833C0.782586 14.0787 0.5 12.7986 0.5 11.2431V1.3507C0.5 1.17245 0.556517 1.02662 0.669552 0.913195C0.782586 0.799768 0.919842 0.743055 1.08132 0.743055H3.28549C3.46312 0.743055 3.60037 0.799768 3.69726 0.913195C3.81029 1.02662 3.86681 1.17245 3.86681 1.3507V11.2431C3.86681 12.5718 4.18169 13.5602 4.81146 14.2083C5.44122 14.8403 6.30513 15.1562 7.40318 15.1562C8.50122 15.1562 9.35706 14.8403 9.97067 14.2083C10.6004 13.5602 10.9153 12.5718 10.9153 11.2431V1.3507C10.9153 1.17245 10.9718 1.02662 11.0849 0.913195C11.1979 0.799768 11.3432 0.743055 11.5209 0.743055H13.7008C13.8784 0.743055 14.0157 0.799768 14.1126 0.913195C14.2256 1.02662 14.2821 1.17245 14.2821 1.3507V11.2431C14.2821 12.7986 13.9995 14.0787 13.4344 15.0833C12.8853 16.0718 12.0941 16.809 11.0606 17.2951C10.0433 17.765 8.82418 18 7.40318 18Z" fill="white"/>
<path d="M18.4941 17.7569C18.3326 17.7569 18.1953 17.7002 18.0823 17.5868C17.9692 17.4734 17.9127 17.3356 17.9127 17.1736V1.3507C17.9127 1.17245 17.9692 1.02662 18.0823 0.913195C18.1953 0.799768 18.3326 0.743055 18.4941 0.743055H24.9855C26.245 0.743055 27.343 0.945602 28.2796 1.3507C29.2162 1.73958 29.9428 2.33912 30.4596 3.14931C30.9763 3.94329 31.2346 4.93981 31.2346 6.13889C31.2346 7.35417 30.9763 8.3588 30.4596 9.15278C29.9428 9.93056 29.2162 10.5139 28.2796 10.9028C27.343 11.2917 26.245 11.4861 24.9855 11.4861H21.3764V17.1736C21.3764 17.3356 21.3199 17.4734 21.2069 17.5868C21.11 17.7002 20.9727 17.7569 20.7951 17.7569H18.4941ZM21.328 8.7882H24.8643C25.8009 8.7882 26.5195 8.56945 27.0201 8.13195C27.5207 7.67824 27.7709 7.01389 27.7709 6.13889C27.7709 5.3287 27.5368 4.68056 27.0685 4.19444C26.6002 3.69213 25.8655 3.44097 24.8643 3.44097H21.328V8.7882Z" fill="white"/>
<path d="M40.4675 18C38.9819 18 37.7143 17.7407 36.6646 17.2222C35.6312 16.7037 34.8238 15.9583 34.2425 14.9861C33.6773 13.9977 33.3705 12.8229 33.3221 11.4618C33.3059 10.765 33.2978 10.0197 33.2978 9.2257C33.2978 8.41551 33.3059 7.65394 33.3221 6.94097C33.3705 5.59607 33.6773 4.4456 34.2425 3.48958C34.8238 2.53357 35.6393 1.7963 36.6889 1.27778C37.7546 0.759259 39.0142 0.5 40.4675 0.5C41.6462 0.5 42.6797 0.662037 43.5678 0.98611C44.456 1.29398 45.1907 1.69907 45.772 2.20139C46.3695 2.6875 46.8135 3.21412 47.1042 3.78125C47.411 4.34838 47.5725 4.875 47.5886 5.36111C47.6048 5.50694 47.5644 5.62847 47.4675 5.7257C47.3706 5.82292 47.2414 5.87153 47.08 5.87153H44.5851C44.4237 5.87153 44.3026 5.83912 44.2218 5.77431C44.1411 5.70949 44.0684 5.61227 44.0038 5.48264C43.8746 5.14236 43.6728 4.81019 43.3983 4.48611C43.1238 4.14583 42.7524 3.86227 42.2841 3.63542C41.8158 3.40857 41.2103 3.29514 40.4675 3.29514C39.3694 3.29514 38.4893 3.58681 37.8273 4.17014C37.1814 4.75347 36.8342 5.71759 36.7858 7.0625C36.7373 8.47222 36.7373 9.89815 36.7858 11.3403C36.8342 12.7176 37.1895 13.706 37.8515 14.3056C38.5297 14.9051 39.4179 15.2049 40.5159 15.2049C41.2425 15.2049 41.8885 15.0752 42.4536 14.816C43.035 14.5567 43.4871 14.1516 43.81 13.6007C44.1491 13.0498 44.3187 12.3449 44.3187 11.4861V10.7326H41.3637C41.2022 10.7326 41.0649 10.6759 40.9519 10.5625C40.8389 10.4491 40.7823 10.3032 40.7823 10.125V8.83681C40.7823 8.65857 40.8389 8.51273 40.9519 8.39931C41.0649 8.28588 41.2022 8.22917 41.3637 8.22917H47.1526C47.3303 8.22917 47.4675 8.28588 47.5644 8.39931C47.6774 8.51273 47.734 8.65857 47.734 8.83681V11.3889C47.734 12.75 47.4352 13.9248 46.8378 14.9132C46.2564 15.9016 45.4167 16.6632 44.3187 17.1979C43.2368 17.7326 41.953 18 40.4675 18Z" fill="white"/>
<path d="M51.4204 17.7569C51.2589 17.7569 51.1216 17.7002 51.0086 17.5868C50.8956 17.4734 50.8391 17.3356 50.8391 17.1736V1.3507C50.8391 1.17245 50.8956 1.02662 51.0086 0.913195C51.1216 0.799768 51.2589 0.743055 51.4204 0.743055H57.6938C59.6477 0.743055 61.1898 1.19676 62.3201 2.10417C63.4505 3.01157 64.0156 4.33218 64.0156 6.06597C64.0156 7.26505 63.7169 8.26157 63.1194 9.05556C62.5381 9.84954 61.755 10.4248 60.7699 10.7813L64.3063 16.9792C64.3547 17.0764 64.379 17.1655 64.379 17.2465C64.379 17.3924 64.3225 17.5139 64.2094 17.6111C64.1125 17.7083 63.9995 17.7569 63.8703 17.7569H61.6661C61.3916 17.7569 61.1817 17.684 61.0364 17.5382C60.891 17.3924 60.778 17.2465 60.6973 17.1007L57.5727 11.3403H54.2059V17.1736C54.2059 17.3356 54.1493 17.4734 54.0363 17.5868C53.9394 17.7002 53.8022 17.7569 53.6245 17.7569H51.4204ZM54.2059 8.59375H57.6211C58.6061 8.59375 59.3409 8.375 59.8253 7.9375C60.3097 7.4838 60.5519 6.85185 60.5519 6.04167C60.5519 5.23148 60.3097 4.59954 59.8253 4.14583C59.357 3.67593 58.6223 3.44097 57.6211 3.44097H54.2059V8.59375Z" fill="white"/>
<path d="M66.0951 17.7569C65.9659 17.7569 65.8448 17.7083 65.7318 17.6111C65.6349 17.5139 65.5865 17.3924 65.5865 17.2465C65.5865 17.1817 65.6026 17.1088 65.6349 17.0278L71.4723 1.3507C71.5208 1.18866 71.6096 1.05093 71.7388 0.9375C71.8841 0.80787 72.0779 0.743055 72.3201 0.743055H74.9602C75.2025 0.743055 75.3882 0.80787 75.5173 0.9375C75.6465 1.05093 75.7434 1.18866 75.808 1.3507L81.6454 17.0278C81.6616 17.1088 81.6696 17.1817 81.6696 17.2465C81.6696 17.3924 81.6212 17.5139 81.5243 17.6111C81.4274 17.7083 81.3144 17.7569 81.1852 17.7569H79.0779C78.8519 17.7569 78.6823 17.7083 78.5693 17.6111C78.4724 17.4977 78.4078 17.3924 78.3755 17.2951L77.2371 14.3299H70.0433L68.9048 17.2951C68.8725 17.3924 68.7999 17.4977 68.6868 17.6111C68.5899 17.7083 68.4285 17.7569 68.2024 17.7569H66.0951ZM70.891 11.5347H76.3893L73.6281 4.02431L70.891 11.5347Z" fill="white"/>
<path d="M84.5123 17.7569C84.3508 17.7569 84.2136 17.7002 84.1005 17.5868C83.9875 17.4734 83.931 17.3356 83.931 17.1736V1.3507C83.931 1.17245 83.9875 1.02662 84.1005 0.913195C84.2136 0.799768 84.3508 0.743055 84.5123 0.743055H90.4224C92.0533 0.743055 93.3936 0.994213 94.4432 1.49653C95.5089 1.99884 96.3082 2.74421 96.8411 3.73264C97.3901 4.72107 97.6727 5.92824 97.6889 7.35417C97.7212 8.06713 97.7373 8.69907 97.7373 9.25C97.7373 9.80093 97.7212 10.4248 97.6889 11.1215C97.6566 12.6285 97.3821 13.8762 96.8653 14.8646C96.3486 15.8368 95.5654 16.566 94.5158 17.0521C93.4824 17.522 92.1583 17.7569 90.5435 17.7569H84.5123ZM87.2978 14.9618H90.4224C91.3266 14.9618 92.0614 14.8322 92.6265 14.5729C93.1917 14.3137 93.6035 13.9005 93.8618 13.3333C94.1364 12.75 94.2817 11.9884 94.2978 11.0486C94.314 10.5625 94.3221 10.1412 94.3221 9.78472C94.3382 9.41204 94.3382 9.04745 94.3221 8.69097C94.3221 8.31829 94.314 7.89699 94.2978 7.42708C94.2655 6.09838 93.9345 5.11806 93.3047 4.48611C92.675 3.85417 91.6738 3.53819 90.3013 3.53819H87.2978V14.9618Z" fill="white"/>
<path d="M101.543 17.7569C101.382 17.7569 101.244 17.7002 101.131 17.5868C101.018 17.4734 100.962 17.3356 100.962 17.1736V1.3507C100.962 1.17245 101.018 1.02662 101.131 0.913195C101.244 0.799768 101.382 0.743055 101.543 0.743055H112.201C112.378 0.743055 112.524 0.799768 112.637 0.913195C112.75 1.02662 112.806 1.17245 112.806 1.3507V2.95486C112.806 3.1169 112.75 3.25463 112.637 3.36806C112.524 3.48148 112.378 3.53819 112.201 3.53819H104.232V7.84028H111.668C111.845 7.84028 111.991 7.89699 112.104 8.01042C112.217 8.10764 112.273 8.24537 112.273 8.42361V9.93056C112.273 10.1088 112.217 10.2546 112.104 10.3681C111.991 10.4653 111.845 10.5139 111.668 10.5139H104.232V14.9618H112.394C112.572 14.9618 112.717 15.0185 112.83 15.1319C112.943 15.2454 113 15.3912 113 15.5694V17.1736C113 17.3356 112.943 17.4734 112.83 17.5868C112.717 17.7002 112.572 17.7569 112.394 17.7569H101.543Z" fill="white"/>
</svg>
