<svg width="21" height="21" viewBox="0 0 21 21" fill="none" xmlns="http://www.w3.org/2000/svg">
<path fill-rule="evenodd" clip-rule="evenodd" d="M17.9402 3.05219C16.9716 2.08181 15.8191 1.31238 14.5496 0.788458C13.28 0.26454 11.9186 -0.00344308 10.5442 3.33954e-05C4.78119 3.33954e-05 0.0896837 4.66811 0.0873543 10.4061C0.0873543 12.24 0.568385 14.0298 1.48269 15.6086L0 21L5.54292 19.5522C7.07615 20.3828 8.79389 20.8184 10.5396 20.8192H10.5442C16.3061 20.8192 20.9976 16.1511 21 10.4131C21.0039 9.04579 20.7355 7.69128 20.2104 6.42784C19.6852 5.16439 18.9136 4.01707 17.9402 3.05219ZM10.5442 19.063H10.5407C8.98411 19.0631 7.45613 18.6463 6.11713 17.8563L5.80032 17.6685L2.51114 18.5274L3.38818 15.3362L3.18202 15.0093C2.31173 13.6303 1.85102 12.0345 1.85307 10.4061C1.8554 5.6372 5.75373 1.75737 10.5477 1.75737C11.6895 1.75485 12.8203 1.97771 13.8749 2.41307C14.9295 2.84843 15.8869 3.48763 16.6916 4.29369C17.5007 5.0959 18.1419 6.04975 18.5784 7.1001C19.0148 8.15045 19.2377 9.27647 19.2342 10.4131C19.2319 15.182 15.3336 19.063 10.5442 19.063ZM15.3114 12.5842C15.0494 12.4533 13.7659 11.825 13.5259 11.738C13.2872 11.6511 13.1136 11.6082 12.9389 11.8679C12.7642 12.1275 12.2634 12.7129 12.1108 12.8868C11.9582 13.0607 11.8056 13.0815 11.5447 12.9517C11.2838 12.8219 10.4417 12.5472 9.44357 11.6615C8.6667 10.9718 8.14258 10.121 7.99 9.86014C7.83742 9.59932 7.97369 9.45906 8.10531 9.32923C8.22294 9.21331 8.36621 9.02552 8.49665 8.87367C8.6271 8.72181 8.6702 8.61401 8.75755 8.44013C8.84491 8.26625 8.80181 8.11439 8.73542 7.98456C8.6702 7.85358 8.14724 6.57383 7.92943 6.05335C7.71862 5.5491 7.50315 5.61633 7.34241 5.60938C7.17595 5.6026 7.00935 5.59951 6.84275 5.6001C6.71027 5.60346 6.57991 5.63403 6.45986 5.68988C6.3398 5.74573 6.23264 5.82567 6.14508 5.92468C5.90515 6.18549 5.23077 6.81378 5.23077 8.09353C5.23077 9.37328 6.16721 10.6101 6.29766 10.784C6.42811 10.9579 8.14025 13.5835 10.7609 14.7102C11.3852 14.978 11.872 15.138 12.2506 15.2585C12.876 15.4567 13.4456 15.4278 13.8963 15.3617C14.3983 15.2875 15.4419 14.7334 15.6597 14.126C15.8775 13.5186 15.8775 12.9981 15.8123 12.8891C15.7471 12.7802 15.5712 12.7141 15.3114 12.5842Z" fill="white"/>
</svg>
